<?xml version="1.0" encoding="utf-8"?>
<!-- Generator: Adobe Illustrator 16.0.0, SVG Export Plug-In . SVG Version: 6.00 Build 0)  -->
<!DOCTYPE svg PUBLIC "-//W3C//DTD SVG 1.1//EN" "http://www.w3.org/Graphics/SVG/1.1/DTD/svg11.dtd">
<svg version="1.1" id="Layer_2" xmlns="http://www.w3.org/2000/svg" xmlns:xlink="http://www.w3.org/1999/xlink" x="0px" y="0px"
	 width="510px" height="510px" viewBox="0 0 510 510" enable-background="new 0 0 510 510" xml:space="preserve">
<g id="XMLID_1_">
	<g>
		<path fill="#FFFFFF" d="M51,0c96.948,0,309.939,0,408,0c31.43,0,51,24.77,51,51c0,126.53,0,302.02,0,408c0,26.439-20.82,51-51,51
			c-57.561,0-124.021,0-124.021,0V318.04h84.682v-84.68h-84.682v-33.75c0-13.61,8.74-22.711,16.23-22.711h68.449V92.21h-68.449
			c-52.551,0-95.279,51.25-95.279,108.15v33h-62.1v84.68h62.1V510c0,0-133.481,0-204.93,0c-33.07,0-51-26.061-51-51
			c0-92.479,0-297.97,0-408C0,21.939,23.93,0,51,0z"/>
	</g>
</g>
</svg>
