<?xml version="1.0" encoding="utf-8"?>
<!-- Generator: Adobe Illustrator 16.0.0, SVG Export Plug-In . SVG Version: 6.00 Build 0)  -->
<!DOCTYPE svg PUBLIC "-//W3C//DTD SVG 1.1//EN" "http://www.w3.org/Graphics/SVG/1.1/DTD/svg11.dtd">
<svg version="1.1" id="Layer_1" xmlns="http://www.w3.org/2000/svg" xmlns:xlink="http://www.w3.org/1999/xlink" x="0px" y="0px"
	 width="322.672px" height="198.012px" viewBox="0 0 322.672 198.012" enable-background="new 0 0 322.672 198.012"
	 xml:space="preserve">
<g>
	<defs>
		<rect id="SVGID_1_" width="322.672" height="198.012"/>
	</defs>
	<clipPath id="SVGID_2_">
		<use xlink:href="#SVGID_1_"  overflow="visible"/>
	</clipPath>
	<path clip-path="url(#SVGID_2_)" fill-rule="evenodd" clip-rule="evenodd" fill="#EE2844" d="M126.43,83.526
		c0,0,9.73,0.769,22.819,0.83c16.08-3.154,43.342-10.361,55.715-24.467c7.556-8.615,11.746-19.81,14.065-29.937
		C216.372,13.937,211.399,0,211.399,0s1.198,35.64-17.207,56.678C175.78,77.729,126.43,83.526,126.43,83.526"/>
	<path clip-path="url(#SVGID_2_)" fill-rule="evenodd" clip-rule="evenodd" fill="#EE2844" d="M137.297,91.544
		c0,0,10.312,0.813,24.169,0.876c16.656-3.217,45.578-10.702,58.796-25.513c0.06-0.076,0.122-0.152,0.185-0.223
		c7.861-8.943,12.248-20.536,14.692-31.053c-2.783-17.076-8.138-32.041-8.138-32.041s1.267,37.534-18.163,59.689
		C189.398,85.441,137.297,91.544,137.297,91.544"/>
	<path clip-path="url(#SVGID_2_)" fill-rule="evenodd" clip-rule="evenodd" fill="#EE2844" d="M149.584,99.575
		c0,0,13.904,1.094,31.354,0.891c17.921-3.888,44.153-11.74,56.658-25.972c7.543-8.582,12.048-19.48,14.736-29.73
		c-2.688-19.203-9.031-36.901-9.031-36.901s1.323,39.131-18.981,62.229C204.018,93.206,149.584,99.575,149.584,99.575"/>
	<path clip-path="url(#SVGID_2_)" fill-rule="evenodd" clip-rule="evenodd" fill="#58595B" d="M163.02,108.829
		c0,0,82.76,6.523,101.508-14.364c18.742-20.889-3.131-81.921-3.131-81.921s1.386,41.088-19.925,65.34
		C220.155,102.143,163.02,108.829,163.02,108.829"/>
	<path clip-path="url(#SVGID_2_)" fill-rule="evenodd" clip-rule="evenodd" fill="#58595B" d="M8.923,177.758
		c1.303,0.064,2.09-0.031,2.344-0.293c0.254-0.254,0.35-1.042,0.286-2.352v-26.795c-0.047-1.047,0.024-1.707,0.214-1.961
		c0.191-0.254,0.787-0.485,1.797-0.692c0.746-0.158,1.571-0.333,2.479-0.515c0.906-0.176,1.842-0.318,2.804-0.438
		c1.303-0.088,2.098-0.278,2.384-0.579c0.295-0.302,0.477-1.129,0.573-2.488l0.635-4.869c0.205-1.328,0.205-2.09-0.017-2.28
		c-0.221-0.192-0.992-0.104-2.312,0.271c-1.589,0.453-3.027,1.047-4.306,1.787c-1.272,0.731-2.336,1.404-3.195,2.018
		c-0.778,0.701-1.303,1.025-1.581,0.984c-0.278-0.047-0.699-0.517-1.263-1.406l-0.532-0.85c-0.652-1.064-1.192-1.684-1.62-1.852
		c-0.43-0.165-1.256-0.151-2.489,0.055l-2.43,0.217c-1.31,0.086-2.09,0.276-2.344,0.563c-0.255,0.294-0.35,1.09-0.293,2.399v36.432
		c-0.057,1.31,0.038,2.098,0.293,2.352c0.254,0.262,1.034,0.357,2.344,0.293H8.923z"/>
	<path clip-path="url(#SVGID_2_)" fill-rule="evenodd" clip-rule="evenodd" fill="#58595B" d="M59.895,176.282L59.895,176.282
		c1.215-0.398,1.923-0.762,2.128-1.114c0.199-0.341,0.192-1.136-0.015-2.375l-0.214-1.692c-0.088-1.334-0.271-2.089-0.549-2.265
		c-0.278-0.183-1.04-0.063-2.297,0.358c-1.246,0.39-2.731,0.746-4.44,1.072c-1.716,0.326-3.441,0.502-5.165,0.516
		c-2.868,0.009-5.141-0.803-6.81-2.439s-2.637-4.139-2.915-7.523c-0.151-1.064-0.143-1.692,0.039-1.898
		c0.175-0.199,0.794-0.271,1.859-0.225h21.231c0.295,0.018,0.492-0.014,0.596-0.076c0.095-0.064,0.214-0.256,0.349-0.559
		l0.111-0.205c0.152-0.209,0.246-0.381,0.286-0.551c0.049-0.158,0.088-0.363,0.137-0.617c0-0.412,0.023-0.82,0.047-1.217
		c0.03-0.389,0.055-0.794,0.055-1.215c-0.055-6.357-1.636-11.125-4.75-14.296c-3.107-3.179-7.438-4.765-12.983-4.759
		c-5.595,0.023-10.116,1.875-13.573,5.563c-3.447,3.686-5.229,9.064-5.332,16.137c0.135,7.088,1.931,12.516,5.387,16.281
		c3.458,3.773,7.787,5.65,12.984,5.633c3.186-0.078,5.959-0.389,8.31-0.904C56.724,177.385,58.566,176.844,59.895,176.282
		 M46.911,142.067c1.605-0.008,2.917,0.652,3.934,1.994c1.024,1.336,1.652,3.434,1.883,6.277c0.151,1.064,0.135,1.702-0.041,1.907
		c-0.182,0.215-0.802,0.317-1.866,0.317l-9.09,0.318c-1.017,0.104-1.628,0.063-1.827-0.128c-0.2-0.19-0.222-0.817-0.081-1.882
		c0.28-3.895,1.105-6.366,2.472-7.422C43.669,142.393,45.211,141.932,46.911,142.067"/>
	<path clip-path="url(#SVGID_2_)" fill-rule="evenodd" clip-rule="evenodd" fill="#58595B" d="M83.834,177.758
		c1.312,0.064,2.09-0.031,2.344-0.293c0.263-0.254,0.357-1.042,0.295-2.352V145.88c-0.047-0.993,0.023-1.62,0.214-1.875
		c0.183-0.263,0.788-0.517,1.795-0.771c0.589-0.166,1.312-0.309,2.179-0.438c0.864-0.128,1.834-0.189,2.891-0.197
		c2.225-0.074,3.885,0.414,4.998,1.469c1.112,1.049,1.669,3.107,1.669,6.158v24.887c-0.064,1.31,0.031,2.098,0.285,2.352
		c0.254,0.262,1.042,0.357,2.352,0.293h6.325c1.311,0.064,2.097-0.031,2.353-0.293c0.254-0.254,0.348-1.042,0.285-2.352v-25.42
		c-0.12-5.371-1.51-9.152-4.18-11.338c-2.669-2.185-5.879-3.233-9.646-3.154c-2.034,0.031-3.932,0.279-5.705,0.746
		c-1.772,0.47-3.249,0.963-4.441,1.471c-0.921,0.484-1.558,0.7-1.899,0.637c-0.349-0.072-0.874-0.492-1.59-1.272l-0.103-0.103
		c-0.714-0.716-1.263-1.137-1.645-1.271c-0.389-0.126-1.064-0.126-2.049,0l-3.059,0.318c-1.303,0.086-2.091,0.277-2.344,0.572
		c-0.254,0.284-0.35,1.081-0.286,2.391v36.424c-0.064,1.31,0.032,2.098,0.286,2.352c0.253,0.262,1.041,0.357,2.344,0.293H83.834z"/>
	<path clip-path="url(#SVGID_2_)" fill-rule="evenodd" clip-rule="evenodd" fill="#58595B" d="M162.219,156.901L162.219,156.901
		c-0.064-6.421-1.908-11.615-5.517-15.58c-3.598-3.965-8.556-6.008-14.857-6.119c-6.253,0.111-11.179,2.154-14.771,6.119
		c-3.598,3.965-5.427,9.159-5.498,15.58c0.064,6.428,1.883,11.641,5.458,15.637c3.575,3.996,8.511,6.057,14.811,6.177
		c6.348-0.12,11.314-2.181,14.898-6.177C160.335,168.542,162.155,163.329,162.219,156.901 M133.391,156.901
		c-0.103-3.806,0.413-7.134,1.534-9.994c1.112-2.869,3.424-4.369,6.92-4.521c3.536,0.152,5.84,1.652,6.912,4.521
		c1.066,2.86,1.543,6.188,1.44,9.994c0.104,3.768-0.399,7.105-1.479,10.014c-1.089,2.914-3.386,4.449-6.873,4.606
		c-3.449-0.157-5.745-1.692-6.881-4.606C133.82,164.006,133.295,160.668,133.391,156.901"/>
	<path clip-path="url(#SVGID_2_)" fill-rule="evenodd" clip-rule="evenodd" fill="#EE2844" d="M180.652,177.758
		c1.303,0.064,2.089-0.031,2.344-0.293c0.254-0.254,0.349-1.042,0.286-2.352v-29.129c-0.047-1.041,0.024-1.7,0.214-1.971
		c0.19-0.264,0.787-0.525,1.797-0.779c0.539-0.166,1.128-0.309,1.764-0.438c0.628-0.128,1.238-0.189,1.835-0.197
		c1.517-0.121,2.946,0.174,4.289,0.889c1.353,0.707,2.066,2.568,2.155,5.57v26.055c-0.057,1.31,0.039,2.098,0.294,2.352
		c0.255,0.262,1.031,0.357,2.344,0.293h6.229c1.311,0.064,2.088-0.031,2.344-0.293c0.255-0.254,0.352-1.042,0.296-2.352v-29.129
		c-0.05-1.004,0.013-1.645,0.205-1.932c0.191-0.285,0.788-0.557,1.797-0.818c0.547-0.166,1.128-0.309,1.748-0.438
		c0.619-0.128,1.198-0.189,1.747-0.197c1.327-0.145,2.71,0.11,4.132,0.771c1.431,0.651,2.2,2.551,2.313,5.688v26.055
		c-0.056,1.31,0.038,2.098,0.292,2.352c0.253,0.262,1.035,0.357,2.343,0.293h6.333c1.313,0.064,2.09-0.031,2.345-0.293
		c0.255-0.254,0.351-1.042,0.295-2.352v-26.055c-0.079-4.506-0.914-7.738-2.502-9.711c-1.591-1.968-3.433-3.168-5.548-3.613
		c-2.112-0.438-4.004-0.621-5.674-0.533c-2.017,0.008-3.925,0.246-5.719,0.725c-1.796,0.475-3.411,1.112-4.849,1.913
		c-0.825,0.486-1.398,0.708-1.731,0.69c-0.334-0.021-0.881-0.324-1.645-0.896c-1.71-0.986-3.486-1.638-5.33-1.969
		c-1.844-0.335-3.616-0.486-5.333-0.463c-1.398,0.031-2.772,0.279-4.123,0.746c-1.353,0.47-2.512,0.963-3.489,1.471
		c-0.873,0.539-1.479,0.779-1.797,0.723c-0.323-0.047-0.817-0.468-1.476-1.254l-0.216-0.104c-0.658-0.763-1.175-1.216-1.549-1.359
		c-0.374-0.141-1.058-0.149-2.034-0.015l-3.059,0.318c-1.312,0.086-2.09,0.277-2.351,0.572c-0.256,0.284-0.351,1.081-0.287,2.391
		v36.424c-0.063,1.31,0.031,2.098,0.287,2.352c0.261,0.262,1.039,0.357,2.351,0.293H180.652z"/>
	<path clip-path="url(#SVGID_2_)" fill-rule="evenodd" clip-rule="evenodd" fill="#EE2844" d="M261.513,175.756L261.513,175.756
		c0.771-0.541,1.279-0.787,1.525-0.746c0.247,0.047,0.652,0.436,1.217,1.166c0.469,0.66,1.143,1.265,2.018,1.798
		c0.874,0.53,1.995,0.817,3.36,0.842c1.391-0.017,2.702-0.19,3.941-0.509c1.248-0.325,2.319-0.684,3.234-1.072
		c1.071-0.404,1.676-0.764,1.828-1.074c0.142-0.31,0.063-1.01-0.239-2.096l-0.214-0.741c-0.151-0.968-0.341-1.524-0.564-1.685
		c-0.222-0.149-0.811-0.157-1.756-0.008l-0.216,0.104c-0.953,0.149-1.524,0.144-1.699-0.015c-0.183-0.16-0.247-0.717-0.199-1.678
		v-22.248c-0.055-2.819-0.85-5.164-2.391-7.031c-1.542-1.867-3.513-3.258-5.912-4.182c-2.4-0.928-4.91-1.389-7.533-1.381
		c-2.779,0.041-5.331,0.352-7.643,0.938c-2.32,0.58-4.203,1.185-5.665,1.813c-1.216,0.389-1.923,0.764-2.105,1.104
		c-0.191,0.342-0.159,1.137,0.104,2.385l0.214,1.795c0.143,1.288,0.35,2.004,0.628,2.145c0.277,0.152,1.017-0.039,2.216-0.556
		c1.146-0.452,2.504-0.899,4.075-1.327c1.574-0.429,3.18-0.658,4.793-0.683c2.685,0.017,4.664,0.556,5.937,1.628
		c1.271,1.066,1.897,2.535,1.891,4.411v4.243c0.046,0.968-0.018,1.525-0.199,1.666c-0.175,0.146-0.747,0.121-1.709-0.076
		c-0.573-0.113-1.263-0.207-2.073-0.295c-0.803-0.081-1.732-0.129-2.789-0.129c-4.027-0.07-7.612,0.811-10.75,2.632
		c-3.147,1.819-4.8,5.006-4.975,9.543c0.047,3.806,1.112,6.808,3.187,9.009c2.082,2.201,4.887,3.329,8.414,3.37
		c2.336-0.048,4.354-0.397,6.055-1.058C259.218,177.108,260.553,176.43,261.513,175.756 M250.834,166.437
		c0.009-2.002,0.827-3.49,2.438-4.466c1.614-0.977,3.941-1.541,6.969-1.684c1.058-0.097,1.686-0.041,1.892,0.172
		c0.199,0.207,0.27,0.82,0.224,1.836v5.309c0.046,1.002-0.018,1.645-0.199,1.932c-0.175,0.286-0.747,0.563-1.709,0.826
		c-0.588,0.215-1.23,0.413-1.938,0.58c-0.708,0.166-1.438,0.254-2.179,0.262c-1.668,0-2.996-0.398-3.98-1.191
		C251.359,169.217,250.859,168.025,250.834,166.437"/>
	<path clip-path="url(#SVGID_2_)" fill-rule="evenodd" clip-rule="evenodd" fill="#EE2844" d="M322.401,181.795L322.401,181.795
		c-0.135-4.107-1.471-6.984-4.012-8.621c-2.536-1.637-5.474-2.652-8.821-3.051c-3.337-0.389-6.283-0.778-8.817-1.16
		c-2.543-0.381-3.879-1.366-4.014-2.956c0.023-0.944,0.397-1.628,1.113-2.042c0.714-0.412,1.611-0.62,2.692-0.611
		c6.196-0.088,10.733-1.439,13.595-4.045c2.868-2.607,4.291-5.91,4.252-9.924c0-0.748-0.057-1.509-0.175-2.279
		c-0.111-0.773-0.303-1.535-0.564-2.283c-0.351-1.008-0.445-1.61-0.287-1.81c0.152-0.207,0.74-0.301,1.765-0.31l0.842-0.104
		c1.312,0.008,2.098-0.121,2.352-0.382c0.256-0.271,0.352-1.056,0.293-2.368v-3.486c0.059-1.344-0.029-2.107-0.275-2.289
		c-0.247-0.192-1.002-0.025-2.258,0.492c-1.812,0.651-3.464,1.461-4.956,2.432c-0.773,0.572-1.32,0.873-1.669,0.906
		c-0.343,0.039-0.947-0.16-1.82-0.588c-1.432-0.693-2.996-1.217-4.712-1.574c-1.709-0.358-3.52-0.541-5.427-0.541
		c-5.086,0.047-9.121,1.32-12.102,3.83c-2.987,2.512-4.514,5.961-4.578,10.354c0.018,2.63,0.557,4.998,1.622,7.12
		c1.065,2.12,2.528,3.806,4.395,5.052c0.835,0.479,1.263,0.818,1.271,1.034c0.018,0.213-0.374,0.61-1.167,1.192
		c-0.779,0.588-1.511,1.373-2.186,2.351c-0.675,0.985-1.04,2.146-1.081,3.472c0.032,1.375,0.287,2.526,0.763,3.457
		c0.478,0.938,0.993,1.693,1.559,2.266c0.691,0.595,1.017,1,0.968,1.205c-0.039,0.207-0.507,0.479-1.391,0.813
		c-1.325,0.5-2.67,1.406-4.027,2.709c-1.359,1.311-2.099,3.195-2.2,5.657c0.102,4.075,1.898,7.144,5.393,9.194
		c3.489,2.049,8.065,3.082,13.715,3.082c5.682,0.022,10.394-1.272,14.136-3.885C320.329,191.481,322.266,187.38,322.401,181.795
		 M293.566,183.805L293.566,183.805c0.025-1.008,0.247-1.882,0.668-2.622c0.413-0.739,0.896-1.351,1.447-1.827
		c0.58-0.564,1.039-0.898,1.389-1.01c0.351-0.111,0.946-0.127,1.78-0.047c3.758,0.246,6.771,0.73,9.026,1.471
		c2.263,0.73,3.449,2.153,3.552,4.25c-0.024,2.297-0.898,3.924-2.622,4.871c-1.732,0.953-3.854,1.404-6.357,1.383
		c-2.59-0.025-4.703-0.613-6.34-1.765C294.465,187.358,293.622,185.792,293.566,183.805 M295.474,149.274
		c-0.023-2.16,0.437-3.926,1.382-5.299c0.945-1.367,2.496-2.074,4.641-2.113c2.2,0.039,3.772,0.746,4.734,2.113
		c0.953,1.373,1.423,3.139,1.399,5.299c0.009,2.161-0.485,3.908-1.479,5.252c-1.001,1.334-2.55,2.026-4.655,2.064
		c-2.098-0.038-3.614-0.73-4.562-2.064C295.989,153.182,295.506,151.435,295.474,149.274"/>
</g>
</svg>
