<?xml version="1.0" encoding="utf-8"?>
<!-- Generator: Adobe Illustrator 16.0.0, SVG Export Plug-In . SVG Version: 6.00 Build 0)  -->
<!DOCTYPE svg PUBLIC "-//W3C//DTD SVG 1.1//EN" "http://www.w3.org/Graphics/SVG/1.1/DTD/svg11.dtd">
<svg version="1.1" id="Layer_2" xmlns="http://www.w3.org/2000/svg" xmlns:xlink="http://www.w3.org/1999/xlink" x="0px" y="0px"
	 width="510px" height="510px" viewBox="0 0 510 510" enable-background="new 0 0 510 510" xml:space="preserve">
<g>
	<path id="YouTube" fill="#FFFFFF" d="M458.607-0.943H51.391c-28.905,0-52.363,23.401-52.363,52.334v407.218
		c0,28.935,23.458,52.335,52.363,52.335h407.216c28.906,0,52.365-23.372,52.365-52.335V51.391
		C510.973,22.458,487.543-0.943,458.607-0.943z M293.926,85.491h24.926v78.615c0,15.102,0.48,14.65,0.988,16.542
		c0.537,2.004,2.344,6.719,8.188,6.719c6.209,0,7.932-4.968,8.41-7.085c0.396-1.835,0.848-1.467,0.848-17.219V85.491h24.896v117.994
		h-25.236l0.313-5.956l-7.68-3.19c-1.945,3.952-4.205,6.774-6.971,8.75c-2.795,1.948-5.93,2.936-9.656,2.936
		c-4.289,0-7.791-0.932-10.443-2.767c-2.598-1.778-4.402-3.98-5.588-6.774c-1.301-3.104-2.117-6.464-2.428-9.767
		c-0.369-3.811-0.564-11.687-0.564-23.43V85.491H293.926z M207.323,134.552c0-12.308,1.045-21.82,3.021-28.567
		c1.863-6.238,5.166-11.15,10.105-14.933c5.023-3.924,11.657-5.871,19.73-5.871c6.888,0,12.787,1.354,17.615,3.896
		c4.686,2.484,8.299,5.73,10.754,9.541c2.514,4.008,4.264,8.101,5.193,12.223c0.961,4.291,1.439,11.235,1.439,20.606v20.776
		c0,12.194-0.479,21.086-1.354,26.563c-0.848,5.025-2.711,9.824-5.506,14.227c-2.793,4.319-6.266,7.537-10.697,9.626
		c-4.573,2.173-9.964,3.302-16.005,3.302c-6.889,0-12.73-0.959-17.416-2.936c-4.349-1.75-7.68-4.291-9.994-7.707
		c-2.37-3.557-4.121-7.932-5.165-13.013c-1.13-5.477-1.693-14.001-1.693-25.377L207.323,134.552z M149.032,43.459l20.269,65.235
		c3.528-17.05,10.358-40.648,15.78-65.235h18.375l-23.654,93.068l-0.169,0.734v66.167h-21.538v-66.167l-0.17-0.706l-27.27-93.096
		H149.032z M442.434,408.364c-3.217,29.356-29.271,53.406-58.488,55.384c-86.039,3.697-171.824,3.697-257.835,0
		c-29.242-1.978-55.27-26.026-58.516-55.384c-3.19-46.464-3.19-92.108,0-138.516c3.218-29.357,29.271-53.351,58.516-55.412
		c86.012-3.67,171.796-3.67,257.835,0c29.244,2.061,55.271,26.054,58.488,55.412C445.652,316.255,445.652,361.9,442.434,408.364z
		 M241.253,191.827c3.612,0,6.435-2.174,7.706-5.928c0.593-1.721,1.299-4.996,1.299-13.917v-51.121
		c0-10.332-0.594-13.663-1.215-15.554c-1.271-3.839-4.064-6.069-7.706-6.069c-3.585,0-6.407,2.145-7.734,5.956
		c-0.677,1.834-1.354,5.25-1.354,15.667v49.709c0,9.767,0.705,13.126,1.326,15.017C234.872,189.54,237.667,191.827,241.253,191.827z
		 M101.128,278.768h20.323h4.037v4.15v132.785h25.52V282.918v-4.15h4.007h20.41v-25.969h-74.297V278.768L101.128,278.768z
		 M221.804,368.958c0,14.706-0.424,18.348-0.763,19.899c-0.875,3.812-3.925,6.126-8.215,6.126c-4.094,0-7.058-2.203-8.017-5.845
		c-0.424-1.552-0.875-5.193-0.875-19.194v-77.825h-24.164v84.799c0,11.178,0.17,18.63,0.508,22.3
		c0.339,3.358,1.214,6.688,2.569,9.823c1.214,2.821,3.048,4.996,5.617,6.662c2.483,1.722,5.785,2.539,9.768,2.539
		c3.415,0,6.379-0.873,8.977-2.652c2.682-1.808,5.024-4.687,6.943-8.496l7.65,1.861l-0.339,6.889h24.501V292.119h-24.135
		L221.804,368.958z M328.676,298.387c-1.328-2.624-3.248-4.572-5.787-6.069c-2.625-1.495-5.844-2.2-9.541-2.2
		c-3.105,0-5.9,0.763-8.582,2.428c-2.738,1.75-5.307,4.318-7.621,7.932l-7.367,11.376v-13.719v-45.306h-24.164v162.904h22.811
		l1.41-7.255l1.977-10.104l5.363,8.693c2.371,3.896,4.996,6.746,7.762,8.639c2.625,1.75,5.365,2.652,8.355,2.652
		c4.234,0,7.791-1.497,10.896-4.403c3.246-3.161,5.25-6.69,6.125-10.98c0.959-4.742,1.439-12.251,1.439-11.743v-64.67
		c0,0.282,0.959-6.436-0.48-19.788C331.018,303.977,330.143,301.238,328.676,298.387z M307.645,370.172
		c0,11.572-0.592,15.102-1.072,16.937c-1.129,3.979-3.979,6.294-7.818,6.294c-3.727,0-6.576-2.201-7.764-6.068
		c-0.563-1.749-1.186-5.193-1.186-15.778v-32.773c0-11.009,0.564-14.312,1.074-15.893c1.1-3.642,3.979-5.843,7.676-5.843
		c3.813,0,6.691,2.314,7.904,6.238c0.537,1.722,1.242,5.166,1.242,15.554v31.36L307.645,370.172L307.645,370.172z M373.67,357.581
		h4.037h37.686v-13.437c0-12.167-1.131-26.112-3.359-32.632c-2.117-6.295-5.703-11.15-10.98-14.904
		c-5.109-3.612-11.828-5.506-19.93-5.506c-6.576,0-12.447,1.524-17.443,4.603c-4.998,3.076-8.469,7.396-10.672,13.237
		c-2.313,6.069-3.527,14.708-3.527,30.035v37.967c0,4.884,0.564,12.11,1.58,16.854c1.018,4.573,2.852,8.808,5.449,12.618
		c2.455,3.585,6.039,6.491,10.557,8.608c4.629,2.146,10.105,3.246,16.26,3.246c6.295,0,11.545-1.101,15.555-3.188
		c4.008-2.117,7.34-5.363,9.99-9.654c2.768-4.46,4.547-8.722,5.279-12.563c0.791-4.035,1.188-10.021,1.188-17.812v-5.787h-22.471
		v13.324c0,7.057-0.48,11.658-1.469,14.424c-1.383,3.755-4.572,5.956-8.723,5.956c-3.643,0-6.465-1.806-7.734-5.052
		c-0.621-1.525-1.326-4.265-1.326-12.761v-23.653v-3.896h0.057v-0.027H373.67z M373.67,340.221v-13.973
		c0-10.275,0.535-8.724,0.988-10.105c1.072-3.303,3.979-5.251,8.018-5.251c3.613,0,6.379,2.117,7.479,5.73
		c0.451,1.469,1.018,0.057,1.018,9.626v13.973v3.925h-4.035h-9.4h-4.037L373.67,340.221z"/>
</g>
</svg>
