<?xml version="1.0" encoding="utf-8"?><!DOCTYPE svg PUBLIC "-//W3C//DTD SVG 1.1//EN" "http://www.w3.org/Graphics/SVG/1.1/DTD/svg11.dtd"><svg xmlns="http://www.w3.org/2000/svg" xmlns:xlink="http://www.w3.org/1999/xlink"><symbol viewBox="0 0 25 25" id="cross"><path fill="none" d="M3.661 21.339L21.339 3.661M3.661 3.661l17.678 17.678"/></symbol><symbol viewBox="0 0 510 510" id="facebook"><path fill="#FFF" d="M51 0h408c31.43 0 51 24.77 51 51v408c0 26.439-20.82 51-51 51H334.979V318.04h84.682v-84.68h-84.682v-33.75c0-13.61 8.74-22.711 16.23-22.711h68.449V92.21h-68.449c-52.551 0-95.279 51.25-95.279 108.15v33h-62.1v84.68h62.1V510H51c-33.07 0-51-26.061-51-51V51C0 21.939 23.93 0 51 0z"/></symbol><symbol viewBox="0 0 41 41" id="hamburger"><g fill="none"><path d="M6.583 9.5h27.834M6.583 20.5h27.834M6.583 31.5h27.834"/></g></symbol><symbol viewBox="0 0 322.672 198.012" id="logo"><defs><path id="da" d="M0 0h322.672v198.012H0z"/></defs><clipPath id="db"><use xlink:href="#da" overflow="visible"/></clipPath><path clip-path="url(#db)" fill-rule="evenodd" clip-rule="evenodd" fill="#EE2844" d="M126.43 83.526s9.73.769 22.819.83c16.08-3.154 43.342-10.361 55.715-24.467 7.556-8.615 11.746-19.81 14.065-29.937C216.372 13.937 211.399 0 211.399 0s1.198 35.64-17.207 56.678C175.78 77.729 126.43 83.526 126.43 83.526"/><path clip-path="url(#db)" fill-rule="evenodd" clip-rule="evenodd" fill="#EE2844" d="M137.297 91.544s10.312.813 24.169.876c16.656-3.217 45.578-10.702 58.796-25.513.06-.076.122-.152.185-.223 7.861-8.943 12.248-20.536 14.692-31.053-2.783-17.076-8.138-32.041-8.138-32.041s1.267 37.534-18.163 59.689c-19.44 22.162-71.541 28.265-71.541 28.265"/><path clip-path="url(#db)" fill-rule="evenodd" clip-rule="evenodd" fill="#EE2844" d="M149.584 99.575s13.904 1.094 31.354.891c17.921-3.888 44.153-11.74 56.658-25.972 7.543-8.582 12.048-19.48 14.736-29.73-2.688-19.203-9.031-36.901-9.031-36.901s1.323 39.131-18.981 62.229c-20.302 23.114-74.736 29.483-74.736 29.483"/><path clip-path="url(#db)" fill-rule="evenodd" clip-rule="evenodd" fill="#58595B" d="M163.02 108.829s82.76 6.523 101.508-14.364c18.742-20.889-3.131-81.921-3.131-81.921s1.386 41.088-19.925 65.34c-21.317 24.259-78.452 30.945-78.452 30.945M8.923 177.758c1.303.064 2.09-.031 2.344-.293.254-.254.35-1.042.286-2.352v-26.795c-.047-1.047.024-1.707.214-1.961.191-.254.787-.485 1.797-.692.746-.158 1.571-.333 2.479-.515a41.973 41.973 0 0 1 2.804-.438c1.303-.088 2.098-.278 2.384-.579.295-.302.477-1.129.573-2.488l.635-4.869c.205-1.328.205-2.09-.017-2.28-.221-.192-.992-.104-2.312.271-1.589.453-3.027 1.047-4.306 1.787-1.272.731-2.336 1.404-3.195 2.018-.778.701-1.303 1.025-1.581.984-.278-.047-.699-.517-1.263-1.406l-.532-.85c-.652-1.064-1.192-1.684-1.62-1.852-.43-.165-1.256-.151-2.489.055l-2.43.217c-1.31.086-2.09.276-2.344.563-.255.294-.35 1.09-.293 2.399v36.432c-.057 1.31.038 2.098.293 2.352.254.262 1.034.357 2.344.293h6.229zM59.895 176.282c1.215-.398 1.923-.762 2.128-1.114.199-.341.192-1.136-.015-2.375l-.214-1.692c-.088-1.334-.271-2.089-.549-2.265-.278-.183-1.04-.063-2.297.358-1.246.39-2.731.746-4.44 1.072a28.913 28.913 0 0 1-5.165.516c-2.868.009-5.141-.803-6.81-2.439s-2.637-4.139-2.915-7.523c-.151-1.064-.143-1.692.039-1.898.175-.199.794-.271 1.859-.225h21.231c.295.018.492-.014.596-.076.095-.064.214-.256.349-.559l.111-.205c.152-.209.246-.381.286-.551.049-.158.088-.363.137-.617 0-.412.023-.82.047-1.217.03-.389.055-.794.055-1.215-.055-6.357-1.636-11.125-4.75-14.296-3.107-3.179-7.438-4.765-12.983-4.759-5.595.023-10.116 1.875-13.573 5.563-3.447 3.686-5.229 9.064-5.332 16.137.135 7.088 1.931 12.516 5.387 16.281 3.458 3.773 7.787 5.65 12.984 5.633 3.186-.078 5.959-.389 8.31-.904 2.353-.527 4.195-1.068 5.524-1.63m-12.984-34.215c1.605-.008 2.917.652 3.934 1.994 1.024 1.336 1.652 3.434 1.883 6.277.151 1.064.135 1.702-.041 1.907-.182.215-.802.317-1.866.317l-9.09.318c-1.017.104-1.628.063-1.827-.128-.2-.19-.222-.817-.081-1.882.28-3.895 1.105-6.366 2.472-7.422 1.374-1.055 2.916-1.516 4.616-1.381M83.834 177.758c1.312.064 2.09-.031 2.344-.293.263-.254.357-1.042.295-2.352V145.88c-.047-.993.023-1.62.214-1.875.183-.263.788-.517 1.795-.771.589-.166 1.312-.309 2.179-.438.864-.128 1.834-.189 2.891-.197 2.225-.074 3.885.414 4.998 1.469 1.112 1.049 1.669 3.107 1.669 6.158v24.887c-.064 1.31.031 2.098.285 2.352.254.262 1.042.357 2.352.293h6.325c1.311.064 2.097-.031 2.353-.293.254-.254.348-1.042.285-2.352v-25.42c-.12-5.371-1.51-9.152-4.18-11.338-2.669-2.185-5.879-3.233-9.646-3.154-2.034.031-3.932.279-5.705.746-1.772.47-3.249.963-4.441 1.471-.921.484-1.558.7-1.899.637-.349-.072-.874-.492-1.59-1.272l-.103-.103c-.714-.716-1.263-1.137-1.645-1.271-.389-.126-1.064-.126-2.049 0l-3.059.318c-1.303.086-2.091.277-2.344.572-.254.284-.35 1.081-.286 2.391v36.424c-.064 1.31.032 2.098.286 2.352.253.262 1.041.357 2.344.293h6.332zM162.219 156.901c-.064-6.421-1.908-11.615-5.517-15.58-3.598-3.965-8.556-6.008-14.857-6.119-6.253.111-11.179 2.154-14.771 6.119-3.598 3.965-5.427 9.159-5.498 15.58.064 6.428 1.883 11.641 5.458 15.637 3.575 3.996 8.511 6.057 14.811 6.177 6.348-.12 11.314-2.181 14.898-6.177 3.592-3.996 5.412-9.209 5.476-15.637m-28.828 0c-.103-3.806.413-7.134 1.534-9.994 1.112-2.869 3.424-4.369 6.92-4.521 3.536.152 5.84 1.652 6.912 4.521 1.066 2.86 1.543 6.188 1.44 9.994.104 3.768-.399 7.105-1.479 10.014-1.089 2.914-3.386 4.449-6.873 4.606-3.449-.157-5.745-1.692-6.881-4.606-1.144-2.909-1.669-6.247-1.573-10.014"/><path clip-path="url(#db)" fill-rule="evenodd" clip-rule="evenodd" fill="#EE2844" d="M180.652 177.758c1.303.064 2.089-.031 2.344-.293.254-.254.349-1.042.286-2.352v-29.129c-.047-1.041.024-1.7.214-1.971.19-.264.787-.525 1.797-.779a18.563 18.563 0 0 1 1.764-.438 9.806 9.806 0 0 1 1.835-.197 7.65 7.65 0 0 1 4.289.889c1.353.707 2.066 2.568 2.155 5.57v26.055c-.057 1.31.039 2.098.294 2.352.255.262 1.031.357 2.344.293h6.229c1.311.064 2.088-.031 2.344-.293.255-.254.352-1.042.296-2.352v-29.129c-.05-1.004.013-1.645.205-1.932.191-.285.788-.557 1.797-.818a20.179 20.179 0 0 1 1.748-.438 9.258 9.258 0 0 1 1.747-.197c1.327-.145 2.71.11 4.132.771 1.431.651 2.2 2.551 2.313 5.688v26.055c-.056 1.31.038 2.098.292 2.352.253.262 1.035.357 2.343.293h6.333c1.313.064 2.09-.031 2.345-.293.255-.254.351-1.042.295-2.352v-26.055c-.079-4.506-.914-7.738-2.502-9.711-1.591-1.968-3.433-3.168-5.548-3.613-2.112-.438-4.004-.621-5.674-.533-2.017.008-3.925.246-5.719.725-1.796.475-3.411 1.112-4.849 1.913-.825.486-1.398.708-1.731.69-.334-.021-.881-.324-1.645-.896a16.406 16.406 0 0 0-5.33-1.969 27.684 27.684 0 0 0-5.333-.463 13.46 13.46 0 0 0-4.123.746c-1.353.47-2.512.963-3.489 1.471-.873.539-1.479.779-1.797.723-.323-.047-.817-.468-1.476-1.254l-.216-.104c-.658-.763-1.175-1.216-1.549-1.359-.374-.141-1.058-.149-2.034-.015l-3.059.318c-1.312.086-2.09.277-2.351.572-.256.284-.351 1.081-.287 2.391v36.424c-.063 1.31.031 2.098.287 2.352.261.262 1.039.357 2.351.293h6.333zM261.513 175.756c.771-.541 1.279-.787 1.525-.746.247.047.652.436 1.217 1.166.469.66 1.143 1.265 2.018 1.798.874.53 1.995.817 3.36.842a16.553 16.553 0 0 0 3.941-.509c1.248-.325 2.319-.684 3.234-1.072 1.071-.404 1.676-.764 1.828-1.074.142-.31.063-1.01-.239-2.096l-.214-.741c-.151-.968-.341-1.524-.564-1.685-.222-.149-.811-.157-1.756-.008l-.216.104c-.953.149-1.524.144-1.699-.015-.183-.16-.247-.717-.199-1.678v-22.248c-.055-2.819-.85-5.164-2.391-7.031-1.542-1.867-3.513-3.258-5.912-4.182a20.527 20.527 0 0 0-7.533-1.381c-2.779.041-5.331.352-7.643.938-2.32.58-4.203 1.185-5.665 1.813-1.216.389-1.923.764-2.105 1.104-.191.342-.159 1.137.104 2.385l.214 1.795c.143 1.288.35 2.004.628 2.145.277.152 1.017-.039 2.216-.556a39.485 39.485 0 0 1 4.075-1.327 19.346 19.346 0 0 1 4.793-.683c2.685.017 4.664.556 5.937 1.628 1.271 1.066 1.897 2.535 1.891 4.411v4.243c.046.968-.018 1.525-.199 1.666-.175.146-.747.121-1.709-.076a24.975 24.975 0 0 0-2.073-.295 27.936 27.936 0 0 0-2.789-.129c-4.027-.07-7.612.811-10.75 2.632-3.147 1.819-4.8 5.006-4.975 9.543.047 3.806 1.112 6.808 3.187 9.009 2.082 2.201 4.887 3.329 8.414 3.37 2.336-.048 4.354-.397 6.055-1.058 1.699-.65 3.034-1.328 3.994-2.002m-10.679-9.319c.009-2.002.827-3.49 2.438-4.466 1.614-.977 3.941-1.541 6.969-1.684 1.058-.097 1.686-.041 1.892.172.199.207.27.82.224 1.836v5.309c.046 1.002-.018 1.645-.199 1.932-.175.286-.747.563-1.709.826a16.96 16.96 0 0 1-1.938.58c-.708.166-1.438.254-2.179.262-1.668 0-2.996-.398-3.98-1.191-.993-.796-1.493-1.988-1.518-3.576M322.401 181.795c-.135-4.107-1.471-6.984-4.012-8.621-2.536-1.637-5.474-2.652-8.821-3.051a268.339 268.339 0 0 1-8.817-1.16c-2.543-.381-3.879-1.366-4.014-2.956.023-.944.397-1.628 1.113-2.042.714-.412 1.611-.62 2.692-.611 6.196-.088 10.733-1.439 13.595-4.045 2.868-2.607 4.291-5.91 4.252-9.924 0-.748-.057-1.509-.175-2.279a12.186 12.186 0 0 0-.564-2.283c-.351-1.008-.445-1.61-.287-1.81.152-.207.74-.301 1.765-.31l.842-.104c1.312.008 2.098-.121 2.352-.382.256-.271.352-1.056.293-2.368v-3.486c.059-1.344-.029-2.107-.275-2.289-.247-.192-1.002-.025-2.258.492-1.812.651-3.464 1.461-4.956 2.432-.773.572-1.32.873-1.669.906-.343.039-.947-.16-1.82-.588-1.432-.693-2.996-1.217-4.712-1.574a26.436 26.436 0 0 0-5.427-.541c-5.086.047-9.121 1.32-12.102 3.83-2.987 2.512-4.514 5.961-4.578 10.354.018 2.63.557 4.998 1.622 7.12 1.065 2.12 2.528 3.806 4.395 5.052.835.479 1.263.818 1.271 1.034.018.213-.374.61-1.167 1.192-.779.588-1.511 1.373-2.186 2.351-.675.985-1.04 2.146-1.081 3.472.032 1.375.287 2.526.763 3.457.478.938.993 1.693 1.559 2.266.691.595 1.017 1 .968 1.205-.039.207-.507.479-1.391.813-1.325.5-2.67 1.406-4.027 2.709-1.359 1.311-2.099 3.195-2.2 5.657.102 4.075 1.898 7.144 5.393 9.194 3.489 2.049 8.065 3.082 13.715 3.082 5.682.022 10.394-1.272 14.136-3.885 3.741-2.623 5.678-6.724 5.813-12.309m-28.835 2.01c.025-1.008.247-1.882.668-2.622.413-.739.896-1.351 1.447-1.827.58-.564 1.039-.898 1.389-1.01.351-.111.946-.127 1.78-.047 3.758.246 6.771.73 9.026 1.471 2.263.73 3.449 2.153 3.552 4.25-.024 2.297-.898 3.924-2.622 4.871-1.732.953-3.854 1.404-6.357 1.383-2.59-.025-4.703-.613-6.34-1.765-1.644-1.151-2.487-2.717-2.543-4.704m1.908-34.531c-.023-2.16.437-3.926 1.382-5.299.945-1.367 2.496-2.074 4.641-2.113 2.2.039 3.772.746 4.734 2.113.953 1.373 1.423 3.139 1.399 5.299.009 2.161-.485 3.908-1.479 5.252-1.001 1.334-2.55 2.026-4.655 2.064-2.098-.038-3.614-.73-4.562-2.064-.945-1.344-1.428-3.091-1.46-5.252"/></symbol><symbol viewBox="0 0 25 25" id="minus"><path fill="none" d="M0 12.5h25"/></symbol><symbol viewBox="0 0 25 25" id="plus"><path fill="none" d="M12.5 0v25M0 12.5h25"/></symbol><symbol viewBox="0 0 512 512" id="svg-search"><path d="M495 466.2L377.2 348.4c29.2-35.6 46.8-81.2 46.8-130.9C424 103.5 331.5 11 217.5 11 103.4 11 11 103.5 11 217.5S103.4 424 217.5 424c49.7 0 95.2-17.5 130.8-46.7L466.1 495c8 8 20.9 8 28.9 0 8-7.9 8-20.9 0-28.8zm-277.5-83.3C126.2 382.9 52 308.7 52 217.5S126.2 52 217.5 52C308.7 52 383 126.3 383 217.5s-74.3 165.4-165.5 165.4z"/></symbol><symbol viewBox="0 0 510 510" id="twitter"><path fill="#FFF" d="M459 0H51C22.95 0 0 22.95 0 51v408c0 28.05 22.95 51 51 51h408c28.05 0 51-22.95 51-51V51c0-28.05-22.95-51-51-51zm-58.65 186.15c-2.55 117.3-76.5 198.9-188.7 204-45.9 2.55-79.05-12.75-109.65-30.6 33.15 5.102 76.5-7.648 99.45-28.05-33.15-2.55-53.55-20.4-63.75-48.45 10.2 2.55 20.4 0 28.05 0-30.6-10.2-51-28.05-53.55-68.85 7.65 5.1 17.85 7.65 28.05 7.65-22.95-12.75-38.25-61.2-20.4-91.8 33.15 35.7 73.95 66.3 140.25 71.4-17.85-71.4 79.051-109.65 117.301-61.2 17.851-2.55 30.601-10.2 43.351-15.3-5.101 17.85-15.3 28.05-28.05 38.25 12.75-2.55 25.5-5.1 35.7-10.2-2.552 12.75-15.302 22.95-28.052 33.15z"/></symbol><symbol viewBox="0 0 510 510" id="youtube"><path fill="#FFF" d="M458.607-.943H51.391C22.486-.943-.972 22.458-.972 51.391v407.218c0 28.935 23.458 52.335 52.363 52.335h407.216c28.906 0 52.365-23.372 52.365-52.335V51.391c.001-28.933-23.429-52.334-52.365-52.334zM293.926 85.491h24.926v78.615c0 15.102.48 14.65.988 16.542.537 2.004 2.344 6.719 8.188 6.719 6.209 0 7.932-4.968 8.41-7.085.396-1.835.848-1.467.848-17.219V85.491h24.896v117.994h-25.236l.313-5.956-7.68-3.19c-1.945 3.952-4.205 6.774-6.971 8.75-2.795 1.948-5.93 2.936-9.656 2.936-4.289 0-7.791-.932-10.443-2.767-2.598-1.778-4.402-3.98-5.588-6.774a33.658 33.658 0 0 1-2.428-9.767c-.369-3.811-.564-11.687-.564-23.43V85.491h-.003zm-86.603 49.061c0-12.308 1.045-21.82 3.021-28.567 1.863-6.238 5.166-11.15 10.105-14.933 5.023-3.924 11.657-5.871 19.73-5.871 6.888 0 12.787 1.354 17.615 3.896 4.686 2.484 8.299 5.73 10.754 9.541 2.514 4.008 4.264 8.101 5.193 12.223.961 4.291 1.439 11.235 1.439 20.606v20.776c0 12.194-.479 21.086-1.354 26.563-.848 5.025-2.711 9.824-5.506 14.227-2.793 4.319-6.266 7.537-10.697 9.626-4.573 2.173-9.964 3.302-16.005 3.302-6.889 0-12.73-.959-17.416-2.936-4.349-1.75-7.68-4.291-9.994-7.707-2.37-3.557-4.121-7.932-5.165-13.013-1.13-5.477-1.693-14.001-1.693-25.377l-.027-22.356zm-58.291-91.093l20.269 65.235c3.528-17.05 10.358-40.648 15.78-65.235h18.375l-23.654 93.068-.169.734v66.167h-21.538v-66.167l-.17-.706-27.27-93.096h18.377zm293.402 364.905c-3.217 29.356-29.271 53.406-58.488 55.384a2998.36 2998.36 0 0 1-257.835 0c-29.242-1.978-55.27-26.026-58.516-55.384-3.19-46.464-3.19-92.108 0-138.516 3.218-29.357 29.271-53.351 58.516-55.412a3020.4 3020.4 0 0 1 257.835 0c29.244 2.061 55.271 26.054 58.488 55.412 3.218 46.407 3.218 92.052 0 138.516zM241.253 191.827c3.612 0 6.435-2.174 7.706-5.928.593-1.721 1.299-4.996 1.299-13.917v-51.121c0-10.332-.594-13.663-1.215-15.554-1.271-3.839-4.064-6.069-7.706-6.069-3.585 0-6.407 2.145-7.734 5.956-.677 1.834-1.354 5.25-1.354 15.667v49.709c0 9.767.705 13.126 1.326 15.017 1.297 3.953 4.092 6.24 7.678 6.24zm-140.125 86.941h24.36v136.935h25.52V278.768h24.417v-25.969h-74.297v25.969zm120.676 90.19c0 14.706-.424 18.348-.763 19.899-.875 3.812-3.925 6.126-8.215 6.126-4.094 0-7.058-2.203-8.017-5.845-.424-1.552-.875-5.193-.875-19.194v-77.825H179.77v84.799c0 11.178.17 18.63.508 22.3a33.257 33.257 0 0 0 2.569 9.823c1.214 2.821 3.048 4.996 5.617 6.662 2.483 1.722 5.785 2.539 9.768 2.539 3.415 0 6.379-.873 8.977-2.652 2.682-1.808 5.024-4.687 6.943-8.496l7.65 1.861-.339 6.889h24.501V292.119h-24.135l-.025 76.839zm106.872-70.571c-1.328-2.624-3.248-4.572-5.787-6.069-2.625-1.495-5.844-2.2-9.541-2.2-3.105 0-5.9.763-8.582 2.428-2.738 1.75-5.307 4.318-7.621 7.932l-7.367 11.376v-59.025h-24.164v162.904h22.811l1.41-7.255 1.977-10.104 5.363 8.693c2.371 3.896 4.996 6.746 7.762 8.639 2.625 1.75 5.365 2.652 8.355 2.652 4.234 0 7.791-1.497 10.896-4.403 3.246-3.161 5.25-6.69 6.125-10.98.959-4.742 1.439-12.251 1.439-11.743v-64.67c0 .282.959-6.436-.48-19.788-.254-2.797-1.129-5.536-2.596-8.387zm-21.031 71.785c0 11.572-.592 15.102-1.072 16.937-1.129 3.979-3.979 6.294-7.818 6.294-3.727 0-6.576-2.201-7.764-6.068-.563-1.749-1.186-5.193-1.186-15.778v-32.773c0-11.009.564-14.312 1.074-15.893 1.1-3.642 3.979-5.843 7.676-5.843 3.813 0 6.691 2.314 7.904 6.238.537 1.722 1.242 5.166 1.242 15.554v31.36l-.056-.028zm66.025-12.591h41.723v-13.437c0-12.167-1.131-26.112-3.359-32.632-2.117-6.295-5.703-11.15-10.98-14.904-5.109-3.612-11.828-5.506-19.93-5.506-6.576 0-12.447 1.524-17.443 4.603-4.998 3.076-8.469 7.396-10.672 13.237-2.313 6.069-3.527 14.708-3.527 30.035v37.967c0 4.884.564 12.11 1.58 16.854a36.267 36.267 0 0 0 5.449 12.618c2.455 3.585 6.039 6.491 10.557 8.608 4.629 2.146 10.105 3.246 16.26 3.246 6.295 0 11.545-1.101 15.555-3.188 4.008-2.117 7.34-5.363 9.99-9.654 2.768-4.46 4.547-8.722 5.279-12.563.791-4.035 1.188-10.021 1.188-17.812v-5.787h-22.471v13.324c0 7.057-.48 11.658-1.469 14.424-1.383 3.755-4.572 5.956-8.723 5.956-3.643 0-6.465-1.806-7.734-5.052-.621-1.525-1.326-4.265-1.326-12.761v-27.549h.057v-.027h-.004zm0-17.36v-13.973c0-10.275.535-8.724.988-10.105 1.072-3.303 3.979-5.251 8.018-5.251 3.613 0 6.379 2.117 7.479 5.73.451 1.469 1.018.057 1.018 9.626v17.898h-17.472l-.031-3.925z"/></symbol></svg>